<svg width="39" height="25" viewBox="0 0 39 25" fill="none" xmlns="http://www.w3.org/2000/svg">
<path d="M3 11.5L21 23" stroke="#D9D9D9" stroke-dasharray="2 2"/>
<path d="M7.344 14.864C7.32267 14.864 7.29867 14.856 7.272 14.84C7.08533 14.7067 6.89067 14.5307 6.688 14.312C6.49067 14.0987 6.30667 13.848 6.136 13.56C5.96533 13.2667 5.82667 12.9413 5.72 12.584C5.61333 12.2267 5.56 11.84 5.56 11.424C5.56 11.008 5.61333 10.6213 5.72 10.264C5.82667 9.90667 5.96533 9.584 6.136 9.296C6.30667 9.00267 6.49067 8.74933 6.688 8.536C6.89067 8.31733 7.08533 8.14133 7.272 8.008C7.29867 7.992 7.32267 7.984 7.344 7.984C7.392 7.984 7.416 8.00533 7.416 8.048C7.416 8.07467 7.4 8.104 7.368 8.136C6.93067 8.53067 6.61067 9.016 6.408 9.592C6.20533 10.1627 6.104 10.7733 6.104 11.424C6.104 12.0747 6.20533 12.688 6.408 13.264C6.61067 13.8347 6.93067 14.3173 7.368 14.712C7.4 14.744 7.416 14.7733 7.416 14.8C7.416 14.8427 7.392 14.864 7.344 14.864ZM9.19075 14.072C9.08408 14.072 8.96408 14.0613 8.83075 14.04C8.70275 14.0187 8.58008 13.992 8.46275 13.96C8.35075 13.928 8.26275 13.8933 8.19875 13.856C8.16142 13.8347 8.13208 13.8133 8.11075 13.792C8.09475 13.7653 8.08675 13.7227 8.08675 13.664L8.04675 12.408C8.04675 12.3013 8.08142 12.248 8.15075 12.248C8.20942 12.248 8.24942 12.296 8.27075 12.392L8.34275 12.696C8.52408 13.4587 8.86275 13.84 9.35875 13.84C9.62542 13.84 9.83608 13.752 9.99075 13.576C10.1508 13.3947 10.2308 13.1413 10.2308 12.816C10.2308 12.5013 10.1481 12.208 9.98275 11.936C9.82275 11.664 9.56408 11.3947 9.20675 11.128C8.81208 10.8453 8.52408 10.5733 8.34275 10.312C8.16142 10.0453 8.07075 9.76267 8.07075 9.464C8.07075 9.06933 8.20675 8.75467 8.47875 8.52C8.75608 8.28 9.10808 8.16 9.53475 8.16C9.69475 8.16 9.84942 8.17867 9.99875 8.216C10.1481 8.25333 10.2708 8.30667 10.3668 8.376C10.3988 8.39733 10.4228 8.42133 10.4388 8.448C10.4601 8.47467 10.4708 8.50933 10.4708 8.552L10.4948 9.76C10.4948 9.85067 10.4601 9.896 10.3908 9.896C10.3428 9.896 10.3081 9.85867 10.2868 9.784L10.2308 9.584C10.1134 9.17333 9.99075 8.87467 9.86275 8.688C9.74008 8.496 9.56142 8.4 9.32675 8.4C9.09742 8.4 8.91342 8.47467 8.77475 8.624C8.64142 8.77333 8.57475 8.984 8.57475 9.256C8.57475 9.48533 8.64942 9.704 8.79875 9.912C8.94808 10.12 9.20942 10.3733 9.58275 10.672C9.98275 10.9973 10.2734 11.312 10.4548 11.616C10.6414 11.9147 10.7348 12.2347 10.7348 12.576C10.7348 12.8747 10.6681 13.136 10.5348 13.36C10.4014 13.584 10.2174 13.76 9.98275 13.888C9.75342 14.0107 9.48942 14.072 9.19075 14.072ZM13.1141 14.072C12.8261 14.072 12.5701 14.0053 12.3461 13.872C12.1274 13.7333 11.9567 13.544 11.8341 13.304C11.7114 13.0587 11.6501 12.7787 11.6501 12.464V8.768C11.6501 8.656 11.6314 8.58133 11.5941 8.544C11.5621 8.50667 11.4901 8.47733 11.3781 8.456L11.1941 8.424C11.1247 8.408 11.0901 8.376 11.0901 8.328C11.0901 8.26933 11.1301 8.24 11.2101 8.24H12.6741C12.7541 8.24 12.7941 8.272 12.7941 8.336C12.7941 8.384 12.7647 8.41333 12.7061 8.424L12.4901 8.456C12.3834 8.472 12.3114 8.50133 12.2741 8.544C12.2367 8.58667 12.2181 8.664 12.2181 8.776V12.472C12.2181 12.8773 12.3087 13.192 12.4901 13.416C12.6714 13.64 12.9247 13.752 13.2501 13.752C13.5807 13.752 13.8367 13.64 14.0181 13.416C14.1994 13.192 14.2901 12.8773 14.2901 12.472V8.936C14.2901 8.648 14.1994 8.488 14.0181 8.456L13.8021 8.424C13.7434 8.41333 13.7141 8.384 13.7141 8.336C13.7141 8.272 13.7541 8.24 13.8341 8.24H14.9861C15.0661 8.24 15.1061 8.26933 15.1061 8.328C15.1061 8.376 15.0714 8.408 15.0021 8.424L14.8181 8.456C14.6367 8.488 14.5461 8.64533 14.5461 8.928V12.464C14.5461 12.9493 14.4154 13.3387 14.1541 13.632C13.8927 13.9253 13.5461 14.072 13.1141 14.072ZM17.7231 13.92C17.7018 13.92 17.6778 13.912 17.6511 13.896C17.6245 13.88 17.6058 13.8453 17.5951 13.792L16.3871 8.888C16.3818 8.85067 16.3658 8.83467 16.3391 8.84C16.3125 8.84 16.2991 8.85867 16.2991 8.896L16.1391 13.312C16.1338 13.4613 16.1578 13.576 16.2111 13.656C16.2645 13.7307 16.3578 13.7787 16.4911 13.8L16.5951 13.816C16.6645 13.8213 16.6991 13.8533 16.6991 13.912C16.6991 13.9707 16.6591 14 16.5791 14H15.4351C15.3551 14 15.3151 13.9707 15.3151 13.912C15.3151 13.8533 15.3498 13.8213 15.4191 13.816L15.5231 13.8C15.6618 13.7787 15.7551 13.7307 15.8031 13.656C15.8565 13.576 15.8858 13.4613 15.8911 13.312L16.0511 8.768C16.0565 8.656 16.0405 8.58133 16.0031 8.544C15.9658 8.50667 15.8858 8.47733 15.7631 8.456L15.5791 8.424C15.5098 8.408 15.4751 8.376 15.4751 8.328C15.4751 8.26933 15.5151 8.24 15.5951 8.24H16.5551C16.7205 8.24 16.8218 8.32 16.8591 8.48L17.8271 12.472C17.8378 12.5093 17.8538 12.528 17.8751 12.528C17.9018 12.528 17.9178 12.5093 17.9231 12.472L18.9311 8.44C18.9631 8.30667 19.0485 8.24 19.1871 8.24H20.1311C20.2111 8.24 20.2511 8.26933 20.2511 8.328C20.2511 8.376 20.2165 8.408 20.1471 8.424L19.9631 8.456C19.8511 8.47733 19.7765 8.50667 19.7391 8.544C19.7018 8.58133 19.6858 8.656 19.6911 8.768L19.8511 13.472C19.8565 13.584 19.8751 13.6587 19.9071 13.696C19.9391 13.7333 20.0111 13.7627 20.1231 13.784L20.3071 13.816C20.3765 13.832 20.4111 13.864 20.4111 13.912C20.4111 13.9707 20.3711 14 20.2911 14H18.8431C18.7631 14 18.7231 13.9707 18.7231 13.912C18.7231 13.864 18.7578 13.832 18.8271 13.816L19.0111 13.784C19.1231 13.7627 19.1978 13.7333 19.2351 13.696C19.2725 13.6587 19.2885 13.584 19.2831 13.472L19.1471 8.896C19.1471 8.85867 19.1338 8.84 19.1071 8.84C19.0858 8.83467 19.0698 8.848 19.0591 8.88L17.8431 13.792C17.8325 13.8453 17.8138 13.88 17.7871 13.896C17.7658 13.912 17.7445 13.92 17.7231 13.92ZM23.0434 13.92C23.0221 13.92 22.9981 13.912 22.9714 13.896C22.9448 13.88 22.9261 13.8453 22.9154 13.792L21.7074 8.888C21.7021 8.85067 21.6861 8.83467 21.6594 8.84C21.6328 8.84 21.6194 8.85867 21.6194 8.896L21.4594 13.312C21.4541 13.4613 21.4781 13.576 21.5314 13.656C21.5848 13.7307 21.6781 13.7787 21.8114 13.8L21.9154 13.816C21.9848 13.8213 22.0194 13.8533 22.0194 13.912C22.0194 13.9707 21.9794 14 21.8994 14H20.7554C20.6754 14 20.6354 13.9707 20.6354 13.912C20.6354 13.8533 20.6701 13.8213 20.7394 13.816L20.8434 13.8C20.9821 13.7787 21.0754 13.7307 21.1234 13.656C21.1768 13.576 21.2061 13.4613 21.2114 13.312L21.3714 8.768C21.3768 8.656 21.3608 8.58133 21.3234 8.544C21.2861 8.50667 21.2061 8.47733 21.0834 8.456L20.8994 8.424C20.8301 8.408 20.7954 8.376 20.7954 8.328C20.7954 8.26933 20.8354 8.24 20.9154 8.24H21.8754C22.0408 8.24 22.1421 8.32 22.1794 8.48L23.1474 12.472C23.1581 12.5093 23.1741 12.528 23.1954 12.528C23.2221 12.528 23.2381 12.5093 23.2434 12.472L24.2514 8.44C24.2834 8.30667 24.3688 8.24 24.5074 8.24H25.4514C25.5314 8.24 25.5714 8.26933 25.5714 8.328C25.5714 8.376 25.5368 8.408 25.4674 8.424L25.2834 8.456C25.1714 8.47733 25.0968 8.50667 25.0594 8.544C25.0221 8.58133 25.0061 8.656 25.0114 8.768L25.1714 13.472C25.1768 13.584 25.1954 13.6587 25.2274 13.696C25.2594 13.7333 25.3314 13.7627 25.4434 13.784L25.6274 13.816C25.6968 13.832 25.7314 13.864 25.7314 13.912C25.7314 13.9707 25.6914 14 25.6114 14H24.1634C24.0834 14 24.0434 13.9707 24.0434 13.912C24.0434 13.864 24.0781 13.832 24.1474 13.816L24.3314 13.784C24.4434 13.7627 24.5181 13.7333 24.5554 13.696C24.5928 13.6587 24.6088 13.584 24.6034 13.472L24.4674 8.896C24.4674 8.85867 24.4541 8.84 24.4274 8.84C24.4061 8.83467 24.3901 8.848 24.3794 8.88L23.1634 13.792C23.1528 13.8453 23.1341 13.88 23.1074 13.896C23.0861 13.912 23.0648 13.92 23.0434 13.92ZM26.0533 14C25.9733 14 25.9333 13.9707 25.9333 13.912C25.9333 13.864 25.9679 13.832 26.0373 13.816L26.2213 13.784C26.3333 13.7627 26.4053 13.7333 26.4373 13.696C26.4746 13.6587 26.4933 13.584 26.4933 13.472V8.768C26.4933 8.656 26.4746 8.58133 26.4373 8.544C26.4053 8.50667 26.3333 8.47733 26.2213 8.456L26.0373 8.424C25.9679 8.408 25.9333 8.376 25.9333 8.328C25.9333 8.26933 25.9733 8.24 26.0533 8.24H28.7413C28.8639 8.24 28.9306 8.30133 28.9413 8.424L29.0053 9.752C29.0159 9.84267 28.9813 9.888 28.9013 9.888C28.8373 9.888 28.7999 9.85333 28.7893 9.784L28.7413 9.488C28.6826 9.12533 28.5626 8.86133 28.3813 8.696C28.1999 8.52533 27.9493 8.44 27.6293 8.44C27.4159 8.44 27.2666 8.472 27.1813 8.536C27.1013 8.59467 27.0613 8.70133 27.0613 8.856V10.784C27.0613 10.8587 27.0986 10.896 27.1733 10.896H27.5733C27.8079 10.896 27.9519 10.7707 28.0053 10.52L28.0853 10.12C28.1066 10.04 28.1519 10.0053 28.2213 10.016C28.2799 10.0267 28.3093 10.072 28.3093 10.152V11.952C28.3093 12.032 28.2799 12.0773 28.2213 12.088C28.1519 12.0987 28.1066 12.064 28.0853 11.984L28.0053 11.592C27.9679 11.4053 27.9146 11.2827 27.8453 11.224C27.7813 11.1653 27.6879 11.136 27.5653 11.136H27.1733C27.0986 11.136 27.0613 11.1733 27.0613 11.248V13.256C27.0613 13.448 27.1093 13.5867 27.2053 13.672C27.3066 13.7573 27.4879 13.8 27.7493 13.8C28.0159 13.8 28.2426 13.7333 28.4293 13.6C28.6213 13.4613 28.7546 13.2053 28.8293 12.832L28.9253 12.36C28.9413 12.2907 28.9813 12.256 29.0453 12.256C29.1199 12.256 29.1519 12.3013 29.1413 12.392L29.0613 13.816C29.0506 13.9387 28.9839 14 28.8613 14H26.0533ZM33.0063 14.072C32.5423 14.072 32.2463 13.768 32.1183 13.16L31.9343 12.272C31.8756 11.984 31.8089 11.7653 31.7343 11.616C31.6649 11.4667 31.5663 11.3653 31.4383 11.312C31.3156 11.2587 31.1449 11.232 30.9263 11.232C30.8516 11.232 30.7929 11.2533 30.7503 11.296C30.7076 11.3333 30.6863 11.3813 30.6863 11.44V13.44C30.6863 13.552 30.7076 13.6293 30.7503 13.672C30.7929 13.7093 30.8889 13.7413 31.0383 13.768L31.3343 13.816C31.3929 13.8267 31.4223 13.856 31.4223 13.904C31.4223 13.968 31.3823 14 31.3023 14H29.6783C29.5983 14 29.5583 13.9707 29.5583 13.912C29.5583 13.864 29.5929 13.832 29.6623 13.816L29.8463 13.784C29.9583 13.7627 30.0303 13.7333 30.0623 13.696C30.0996 13.6587 30.1183 13.584 30.1183 13.472V8.768C30.1183 8.656 30.0996 8.58133 30.0623 8.544C30.0303 8.50667 29.9583 8.47733 29.8463 8.456L29.6623 8.424C29.5929 8.408 29.5583 8.376 29.5583 8.328C29.5583 8.26933 29.5983 8.24 29.6783 8.24H31.3023C31.6169 8.24 31.8969 8.30133 32.1423 8.424C32.3876 8.54667 32.5796 8.71733 32.7183 8.936C32.8569 9.14933 32.9263 9.39733 32.9263 9.68C32.9263 10.016 32.8249 10.32 32.6223 10.592C32.4196 10.8587 32.1636 11.048 31.8543 11.16C31.8169 11.1707 31.7956 11.1893 31.7903 11.216C31.7903 11.2373 31.8089 11.256 31.8463 11.272C32.0169 11.352 32.1503 11.464 32.2463 11.608C32.3476 11.752 32.4249 11.944 32.4783 12.184L32.6543 13C32.7129 13.2773 32.7823 13.4747 32.8623 13.592C32.9423 13.7093 33.0436 13.768 33.1663 13.768C33.2089 13.768 33.2463 13.7627 33.2783 13.752C33.3156 13.736 33.3609 13.7093 33.4143 13.672C33.4569 13.6453 33.4969 13.64 33.5343 13.656C33.5716 13.6667 33.5903 13.6933 33.5903 13.736C33.5903 13.8267 33.5316 13.9067 33.4143 13.976C33.2969 14.04 33.1609 14.072 33.0063 14.072ZM31.2223 11.032C31.5849 11.032 31.8596 10.912 32.0463 10.672C32.2329 10.4267 32.3263 10.1013 32.3263 9.696C32.3263 9.30133 32.2169 8.99467 31.9983 8.776C31.7849 8.552 31.4889 8.44 31.1103 8.44C30.8276 8.44 30.6863 8.54667 30.6863 8.76V10.592C30.6863 10.8853 30.8649 11.032 31.2223 11.032ZM33.8838 14.864C33.8358 14.864 33.8118 14.8427 33.8118 14.8C33.8118 14.7733 33.8278 14.744 33.8598 14.712C34.3025 14.3173 34.6225 13.8347 34.8198 13.264C35.0225 12.688 35.1238 12.0747 35.1238 11.424C35.1238 10.7733 35.0225 10.1627 34.8198 9.592C34.6225 9.016 34.3025 8.53067 33.8598 8.136C33.8278 8.104 33.8118 8.07467 33.8118 8.048C33.8118 8.00533 33.8358 7.984 33.8838 7.984C33.9105 7.984 33.9345 7.992 33.9558 8.008C34.1425 8.14133 34.3345 8.31733 34.5318 8.536C34.7345 8.74933 34.9211 9.00267 35.0918 9.296C35.2625 9.584 35.4011 9.90667 35.5078 10.264C35.6145 10.6213 35.6678 11.008 35.6678 11.424C35.6678 11.84 35.6145 12.2267 35.5078 12.584C35.4011 12.9413 35.2625 13.2667 35.0918 13.56C34.9211 13.848 34.7345 14.0987 34.5318 14.312C34.3345 14.5307 34.1425 14.7067 33.9558 14.84C33.9345 14.856 33.9105 14.864 33.8838 14.864Z" fill="#0D0D0D"/>
<circle cx="2" cy="11" r="2" fill="black"/>
<circle cx="21" cy="23" r="2" fill="black"/>
<circle cx="37" cy="2" r="2" fill="black"/>
</svg>
