<svg width="16" height="13" viewBox="0 0 16 13" fill="none" xmlns="http://www.w3.org/2000/svg">
<path d="M7.99929 0.592171C12.1421 0.592171 15.5 2.83544 15.5 5.6034C15.5 8.37074 12.1421 10.614 8 10.614C7.58758 10.6134 7.17561 10.5909 6.76643 10.5467L3.61786 12.3118C3.26 12.474 3.13357 12.4563 3.28071 12.0589L3.91786 9.80707C1.86071 8.91319 0.5 7.36421 0.5 5.6034C0.5 2.83605 3.85714 0.592171 8 0.592171M12.22 5.52686L13.27 4.65503C13.3306 4.60109 13.3644 4.52911 13.3643 4.45424C13.3642 4.37937 13.3302 4.30745 13.2694 4.25365C13.2087 4.19984 13.126 4.16834 13.0387 4.16578C12.9514 4.16322 12.8663 4.1898 12.8014 4.23993L11.4243 5.38238V4.43829C11.4243 4.36165 11.3888 4.28815 11.3255 4.23395C11.2623 4.17976 11.1766 4.14931 11.0871 4.14931C10.9977 4.14931 10.912 4.17976 10.8487 4.23395C10.7855 4.28815 10.75 4.36165 10.75 4.43829V6.0038C10.7381 6.04854 10.7381 6.09499 10.75 6.13972V7.02074C10.75 7.09738 10.7855 7.17089 10.8487 7.22508C10.912 7.27928 10.9977 7.30972 11.0871 7.30972C11.1766 7.30972 11.2623 7.27928 11.3255 7.22508C11.3888 7.17089 11.4243 7.09738 11.4243 7.02074V6.18625L11.7293 5.9334L12.7493 7.17809C12.7748 7.20916 12.8071 7.23564 12.8445 7.25599C12.8819 7.27635 12.9236 7.29019 12.9673 7.29673C13.0109 7.30327 13.0556 7.30237 13.0989 7.2941C13.1421 7.28582 13.183 7.27033 13.2193 7.2485C13.2555 7.22667 13.2864 7.19893 13.3102 7.16687C13.3339 7.13481 13.3501 7.09906 13.3577 7.06165C13.3653 7.02424 13.3643 6.98591 13.3546 6.94885C13.345 6.91179 13.3269 6.87672 13.3014 6.84564L12.22 5.52686ZM10.1071 6.70482H9.06429V4.44748C9.06029 4.37322 9.02307 4.30313 8.96035 4.25179C8.89762 4.20044 8.81423 4.1718 8.7275 4.1718C8.64077 4.1718 8.55738 4.20044 8.49465 4.25179C8.43193 4.30313 8.39471 4.37322 8.39071 4.44748V6.9938C8.39071 7.15299 8.54071 7.28278 8.72714 7.28278H10.1071C10.1966 7.28278 10.2823 7.25234 10.3455 7.19814C10.4088 7.14395 10.4443 7.07045 10.4443 6.9938C10.4443 6.91716 10.4088 6.84366 10.3455 6.78946C10.2823 6.73527 10.1966 6.70482 10.1071 6.70482ZM5.92357 6.03686L6.42071 4.99115L6.87643 6.03625L5.92357 6.03686ZM7.72571 6.33503L7.72714 6.32523C7.7269 6.25244 7.69449 6.18243 7.63643 6.12931L6.88929 4.41503C6.85797 4.33333 6.79831 4.26178 6.71828 4.20992C6.63825 4.15807 6.54167 4.12838 6.44143 4.12482C6.34055 4.12478 6.24201 4.1509 6.15877 4.19974C6.07552 4.24859 6.01146 4.31787 5.975 4.3985L4.78786 6.8934C4.75404 6.96435 4.7545 7.04392 4.78913 7.11459C4.82375 7.18526 4.88971 7.24125 4.9725 7.27023C5.05529 7.29922 5.14811 7.29883 5.23056 7.26914C5.31301 7.23946 5.37833 7.18293 5.41214 7.11197L5.64929 6.61421H7.12786L7.34071 7.10401C7.35523 7.14062 7.37818 7.17436 7.40819 7.20323C7.4382 7.2321 7.47467 7.25552 7.51543 7.27209C7.55619 7.28866 7.60041 7.29806 7.64549 7.29971C7.69056 7.30137 7.73556 7.29525 7.77783 7.28173C7.82009 7.2682 7.85876 7.24755 7.89154 7.22098C7.92432 7.19441 7.95055 7.16248 7.96867 7.12707C7.98679 7.09165 7.99643 7.05348 7.99703 7.01482C7.99763 6.97615 7.98916 6.93778 7.97214 6.90197L7.72571 6.33503ZM5.35214 4.45054C5.35233 4.4126 5.34376 4.37499 5.32693 4.3399C5.3101 4.30481 5.28534 4.27291 5.25407 4.24605C5.2228 4.2192 5.18564 4.1979 5.14474 4.1834C5.10383 4.1689 5.05998 4.16148 5.01571 4.16156H2.69786C2.60844 4.16156 2.52269 4.192 2.45946 4.2462C2.39623 4.30039 2.36071 4.3739 2.36071 4.45054C2.36071 4.52718 2.39623 4.60068 2.45946 4.65488C2.52269 4.70907 2.60844 4.73952 2.69786 4.73952H3.52643V7.02686C3.52643 7.10351 3.56195 7.17701 3.62518 7.2312C3.6884 7.2854 3.77416 7.31584 3.86357 7.31584C3.95299 7.31584 4.03874 7.2854 4.10197 7.2312C4.16519 7.17701 4.20071 7.10351 4.20071 7.02686V4.73952H5.015C5.05933 4.73968 5.10325 4.73232 5.14424 4.71785C5.18523 4.70339 5.22247 4.68211 5.25382 4.65524C5.28516 4.62837 5.30999 4.59645 5.32686 4.56132C5.34374 4.52618 5.35233 4.48853 5.35214 4.45054Z" fill="white"/>
</svg>
