<svg width="36" height="36" viewBox="0 0 36 36" fill="none" xmlns="http://www.w3.org/2000/svg">
<path fill-rule="evenodd" clip-rule="evenodd" d="M16.5 28.5L13.0605 31.9395C12.8507 32.1492 12.5835 32.292 12.2925 32.3499C12.0016 32.4077 11.7001 32.378 11.426 32.2645C11.152 32.151 10.9177 31.9588 10.7529 31.7122C10.5881 31.4656 10.5001 31.1756 10.5 30.879V28.5H5.25C4.65326 28.5 4.08097 28.2629 3.65901 27.841C3.23705 27.419 3 26.8467 3 26.25V8.25C3 7.65326 3.23705 7.08097 3.65901 6.65901C4.08097 6.23705 4.65326 6 5.25 6H30.75C31.3467 6 31.919 6.23705 32.341 6.65901C32.7629 7.08097 33 7.65326 33 8.25V26.25C33 26.8467 32.7629 27.419 32.341 27.841C31.919 28.2629 31.3467 28.5 30.75 28.5H16.5Z" fill="black"/>
<path d="M11.501 15.419C11.879 15.419 12.233 15.524 12.563 15.734C12.899 15.938 13.169 16.232 13.373 16.616C13.577 17 13.679 17.45 13.679 17.966V18.506C13.679 19.022 13.577 19.475 13.373 19.865C13.169 20.255 12.899 20.552 12.563 20.756C12.233 20.96 11.879 21.062 11.501 21.062C11.159 21.062 10.841 20.99 10.547 20.846C10.253 20.708 10.004 20.504 9.8 20.234L9.746 20.927H8.666V13.583H9.827V16.22C10.031 15.962 10.277 15.764 10.565 15.626C10.859 15.488 11.171 15.419 11.501 15.419ZM12.518 18.002C12.518 17.504 12.389 17.126 12.131 16.868C11.879 16.604 11.555 16.472 11.159 16.472C10.775 16.472 10.457 16.604 10.205 16.868C9.953 17.132 9.827 17.51 9.827 18.002V18.479C9.827 18.971 9.953 19.349 10.205 19.613C10.457 19.877 10.775 20.009 11.159 20.009C11.555 20.009 11.879 19.88 12.131 19.622C12.389 19.358 12.518 18.977 12.518 18.479V18.002Z" fill="#B8CEDD"/>
<path d="M16.3942 20.927H15.2332V13.583H16.3942V20.927Z" fill="#B8CEDD"/>
<path d="M20.4475 21.062C19.9915 21.062 19.5715 20.966 19.1875 20.774C18.8095 20.582 18.5065 20.3 18.2785 19.928C18.0565 19.55 17.9455 19.097 17.9455 18.569V17.894C17.9455 17.366 18.0565 16.916 18.2785 16.544C18.5065 16.172 18.8095 15.893 19.1875 15.707C19.5715 15.515 19.9915 15.419 20.4475 15.419C20.9035 15.419 21.3205 15.515 21.6985 15.707C22.0825 15.893 22.3885 16.172 22.6165 16.544C22.8445 16.916 22.9585 17.366 22.9585 17.894V18.569C22.9585 19.097 22.8445 19.55 22.6165 19.928C22.3885 20.3 22.0825 20.582 21.6985 20.774C21.3205 20.966 20.9035 21.062 20.4475 21.062ZM20.4475 20.009C20.8315 20.009 21.1525 19.883 21.4105 19.631C21.6685 19.373 21.7975 19.01 21.7975 18.542V17.93C21.7975 17.462 21.6685 17.102 21.4105 16.85C21.1525 16.598 20.8315 16.472 20.4475 16.472C20.0635 16.472 19.7425 16.598 19.4845 16.85C19.2325 17.102 19.1065 17.462 19.1065 17.93V18.542C19.1065 19.01 19.2325 19.373 19.4845 19.631C19.7425 19.883 20.0635 20.009 20.4475 20.009Z" fill="#B8CEDD"/>
<path d="M28.226 15.554H29.306V20.189C29.306 20.717 29.192 21.161 28.964 21.521C28.742 21.881 28.439 22.148 28.055 22.322C27.677 22.502 27.254 22.592 26.786 22.592C26.24 22.592 25.757 22.499 25.337 22.313C24.923 22.127 24.626 21.851 24.446 21.485L25.634 21.026C25.724 21.218 25.871 21.365 26.075 21.467C26.285 21.575 26.522 21.629 26.786 21.629C27.218 21.629 27.551 21.5 27.785 21.242C28.025 20.99 28.145 20.621 28.145 20.135V19.838C27.941 20.078 27.692 20.264 27.398 20.396C27.104 20.528 26.795 20.594 26.471 20.594C26.105 20.594 25.754 20.495 25.418 20.297C25.088 20.105 24.818 19.832 24.608 19.478C24.398 19.124 24.293 18.716 24.293 18.254V17.768C24.293 17.3 24.398 16.889 24.608 16.535C24.818 16.175 25.088 15.899 25.418 15.707C25.754 15.515 26.105 15.419 26.471 15.419C26.807 15.419 27.122 15.488 27.416 15.626C27.716 15.764 27.968 15.959 28.172 16.211L28.226 15.554ZM26.804 19.586C27.188 19.586 27.506 19.463 27.758 19.217C28.016 18.971 28.145 18.635 28.145 18.209V17.795C28.145 17.375 28.016 17.042 27.758 16.796C27.506 16.55 27.188 16.427 26.804 16.427C26.414 16.427 26.09 16.55 25.832 16.796C25.58 17.036 25.454 17.369 25.454 17.795V18.209C25.454 18.635 25.58 18.971 25.832 19.217C26.09 19.463 26.414 19.586 26.804 19.586Z" fill="#B8CEDD"/>
</svg>
